<?xml version="1.0" encoding="UTF-8"?>
<svg version="1.1" xmlns="http://www.w3.org/2000/svg" width="2560" height="1440">
<path d="M0 0 C0 53.79 0 107.58 0 163 C53.13 163 106.26 163 161 163 C161 116.8 161 70.6 161 23 C175.94064035 16.10431984 175.94064035 16.10431984 183.1875 13.203125 C183.97850098 12.88341736 184.76950195 12.56370972 185.58447266 12.23431396 C188.05511359 11.23653161 190.52750396 10.24317509 193 9.25 C194.68110823 8.57190865 196.36209854 7.89352489 198.04296875 7.21484375 C205.99744387 4.00489033 205.99744387 4.00489033 209.22167969 2.71984863 C210.74410618 2.1035836 212.25260245 1.45309532 213.7578125 0.79589844 C216 0 216 0 220 0 C220 124.74 220 249.48 220 378 C212.08372605 381.6536649 204.23493376 385.23514444 196.17578125 388.5234375 C194.74554878 389.10999619 194.74554878 389.10999619 193.28642273 389.70840454 C191.30164853 390.52140676 189.31627859 391.3329561 187.33032227 392.14306641 C184.27877769 393.3887661 181.23014082 394.64140246 178.18164062 395.89453125 C176.24235687 396.68791413 174.30290981 397.48089798 172.36328125 398.2734375 C171.45193924 398.6483432 170.54059723 399.0232489 169.60163879 399.40951538 C168.76283676 399.75052277 167.92403473 400.09153015 167.05981445 400.44287109 C166.32181107 400.74454193 165.58380768 401.04621277 164.82344055 401.35702515 C163 402 163 402 161 402 C161 336 161 270 161 202 C146.16532774 211.78154909 146.16532774 211.78154909 137.86132812 219.12036133 C127.32198871 227.04772519 113.77099231 225.4019127 101.23937988 225.11408234 C98.02072462 225.05058375 94.80221303 225.04844313 91.58300781 225.04064941 C82.22144048 224.98334347 72.86066165 224.82976869 63.5 224.6875 C42.545 224.460625 21.59 224.23375 0 224 C0 274.82 0 325.64 0 378 C-33.075 392.175 -33.075 392.175 -44.125 396.75 C-45.37762156 397.27339586 -46.63022561 397.79683367 -47.8828125 398.3203125 C-49.0584375 398.80757812 -50.2340625 399.29484375 -51.4453125 399.796875 C-52.47156738 400.22323242 -53.49782227 400.64958984 -54.55517578 401.08886719 C-57 402 -57 402 -59 402 C-59 276.93 -59 151.86 -59 23 C-52.21271728 19.91487149 -45.466296 16.89036099 -38.5703125 14.08203125 C-37.31297806 13.5670533 -37.31297806 13.5670533 -36.03024292 13.04167175 C-33.3959687 11.96329619 -30.76050432 10.88786519 -28.125 9.8125 C-26.33846378 9.08157056 -24.55200486 8.35045213 -22.765625 7.61914062 C-13.82698062 3.96186191 -13.82698062 3.96186191 -10.86968994 2.76553345 C-9.3073574 2.12584566 -7.75721664 1.45648622 -6.21044922 0.7800293 C-4 0 -4 0 0 0 Z " fill="#FEFEFE" transform="translate(1753,532)"/>
<path d="M0 0 C0 124.41 0 248.82 0 377 C-10.13436922 381.5041641 -10.13436922 381.5041641 -13.94970703 382.9987793 C-14.8073465 383.33560226 -15.66498596 383.67242523 -16.5486145 384.01945496 C-17.88966751 384.54156303 -17.88966751 384.54156303 -19.2578125 385.07421875 C-20.20510223 385.44352005 -21.15239197 385.81282135 -22.12838745 386.1933136 C-24.11618233 386.9668229 -26.10448125 387.73903805 -28.09326172 388.51000977 C-31.12611017 389.68793117 -34.15480786 390.87613151 -37.18359375 392.06445312 C-39.12475202 392.81834715 -41.06615023 393.57162373 -43.0078125 394.32421875 C-43.9058963 394.67836349 -44.8039801 395.03250824 -45.72927856 395.39738464 C-47.00628128 395.88843437 -47.00628128 395.88843437 -48.30908203 396.3894043 C-49.04804718 396.67712204 -49.78701233 396.96483978 -50.54837036 397.26127625 C-53 398 -53 398 -60 399 C-60.33 377.22 -60.66 355.44 -61 333 C-64.63 337.62 -68.26 342.24 -72 347 C-75.14209936 350.44789978 -78.25879203 353.78501727 -81.5625 357.0625 C-82.41602051 357.91102539 -83.26954102 358.75955078 -84.14892578 359.63378906 C-92.13297177 367.4040425 -100.64125723 373.98060115 -110 380 C-110.60473145 380.39606445 -111.20946289 380.79212891 -111.83251953 381.20019531 C-138.79873252 398.62077898 -175.12277734 403.72900257 -206.36425781 397.41015625 C-233.73910404 391.18796898 -254.61482663 376.54250925 -269.64453125 352.921875 C-284.65084397 328.47073324 -287.46591271 302.24334096 -287.34057617 274.10131836 C-287.33972852 271.41903276 -287.34007618 268.73677174 -287.34190369 266.05448914 C-287.34346574 260.31271562 -287.33416945 254.57104553 -287.31719017 248.82929802 C-287.29265814 240.52803188 -287.2849805 232.22681501 -287.2812262 223.92551655 C-287.2746838 210.4525134 -287.25478315 196.97956518 -287.22631836 183.5065918 C-287.1987202 170.43009717 -287.17751492 157.35361754 -287.16479492 144.27709961 C-287.16400675 143.46910311 -287.16321858 142.66110661 -287.16240653 141.82862537 C-287.158491 137.77455887 -287.15469998 133.72049226 -287.15097082 129.66642559 C-287.11994389 96.11091057 -287.06716894 62.55546206 -287 29 C-283.14589769 27.07026538 -279.29137003 25.14138185 -275.43676758 23.21264648 C-274.35063423 22.66881065 -273.26450089 22.12497482 -272.14545441 21.56465912 C-265.02175272 18.00082071 -257.88406836 14.47717029 -250.6875 11.0625 C-249.79095703 10.63388672 -248.89441406 10.20527344 -247.97070312 9.76367188 C-245.31818469 8.49956612 -242.66014622 7.24796382 -240 6 C-239.00822754 5.52933105 -238.01645508 5.05866211 -236.99462891 4.57373047 C-235.52195557 3.88561279 -235.52195557 3.88561279 -234.01953125 3.18359375 C-233.12983643 2.7652124 -232.2401416 2.34683105 -231.32348633 1.91577148 C-229 1 -229 1 -226 1 C-225.99853479 1.85509797 -225.99853479 1.85509797 -225.99703997 2.72747064 C-225.93864029 36.58984846 -225.86474774 70.45215495 -225.77101372 104.3144532 C-225.75974691 108.38948542 -225.74860824 112.46451799 -225.73754883 116.53955078 C-225.73534514 117.35074241 -225.73314146 118.16193403 -225.730871 118.99770722 C-225.69559555 132.0950684 -225.67067655 145.19242953 -225.64965298 158.28982046 C-225.62781291 171.75066248 -225.59468546 185.21144339 -225.55129844 198.67223334 C-225.5249223 206.96374296 -225.5071239 215.25517659 -225.50065396 223.54672602 C-225.49535674 229.24930798 -225.47899673 234.95179471 -225.45433434 240.65432546 C-225.44046583 243.93374023 -225.43274565 247.21295457 -225.43499184 250.49240303 C-225.44933241 281.11600391 -222.65198117 313.22659611 -201 337 C-184.35799694 351.98007936 -164.17516704 355.8373451 -142.4375 355.140625 C-119.16360271 353.79790016 -98.59963406 345.3026078 -82.375 328.375 C-78.89974074 324.3641273 -76.00639894 320.14438662 -73.25 315.625 C-72.89728027 315.04927246 -72.54456055 314.47354492 -72.18115234 313.88037109 C-66.56761473 304.28388235 -63.24120225 295.46746854 -63.38095093 284.28892517 C-63.37471195 283.17414608 -63.36847297 282.05936699 -63.36204493 280.91080672 C-63.34723216 277.20961619 -63.36770067 273.50949981 -63.38818359 269.80834961 C-63.38463958 267.14149983 -63.37910042 264.47472453 -63.37101746 261.80789185 C-63.35745816 256.08345787 -63.36164523 250.35926389 -63.37784958 244.63484001 C-63.40099765 236.35523719 -63.39357414 228.075873 -63.37831838 219.79626197 C-63.3540972 206.35609751 -63.34982286 192.91600984 -63.36035156 179.47583008 C-63.36097539 178.67294642 -63.36159921 177.87006277 -63.36224194 177.04284931 C-63.36351331 175.41772998 -63.36478755 173.79261065 -63.36606465 172.16749132 C-63.36669703 171.36166254 -63.36732941 170.55583377 -63.36798096 169.72558594 C-63.3686191 168.91897818 -63.36925725 168.11237042 -63.36991473 167.28132 C-63.37673285 158.30449047 -63.3787119 149.327662 -63.37890625 140.35083008 C-63.37892908 139.54620317 -63.37895191 138.74157626 -63.37897544 137.91256671 C-63.37890626 124.50908084 -63.36689597 111.10562413 -63.34794676 97.70215231 C-63.3369761 89.43892924 -63.33782412 81.17585868 -63.3538865 72.91264302 C-63.36433145 67.25985365 -63.36459687 61.60712581 -63.35676835 55.95433234 C-63.35267119 52.69108876 -63.3553031 49.42808235 -63.36770058 46.16485405 C-63.38047632 42.63248041 -63.37509093 39.10059343 -63.36508179 35.56822205 C-63.37333996 34.53069902 -63.38159814 33.49317599 -63.39010656 32.42421287 C-63.38054699 31.01035343 -63.38054699 31.01035343 -63.3707943 29.56793118 C-63.37201194 28.34454671 -63.37201194 28.34454671 -63.37325418 27.09644741 C-62.90606608 24.47240371 -62.06758308 23.63199795 -60 22 C-57.4954834 20.80403137 -57.4954834 20.80403137 -54.47460938 19.63989258 C-53.34333618 19.19966263 -52.21206299 18.75943268 -51.04650879 18.30586243 C-49.82459839 17.84012314 -48.60268799 17.37438385 -47.34375 16.89453125 C-46.07705628 16.40612877 -44.81057971 15.91716278 -43.54431152 15.42765808 C-40.89326338 14.40481786 -38.24018615 13.38749407 -35.58544922 12.37426758 C-32.18232595 11.07511913 -28.7837871 9.76444814 -25.38658905 8.44989491 C-22.77329375 7.43972952 -20.15807011 6.4346407 -17.54219055 5.43118858 C-15.67840143 4.71553689 -13.81593725 3.99643774 -11.95349121 3.27729797 C-10.82221802 2.84652451 -9.69094482 2.41575104 -8.52539062 1.97192383 C-7.5285022 1.59014481 -6.53161377 1.20836578 -5.5045166 0.8150177 C-3 0 -3 0 0 0 Z " fill="#FEFEFE" transform="translate(1504,533)"/>
<path d="M0 0 C0.33 60.06 0.66 120.12 1 182 C4.96 177.71 8.92 173.42 13 169 C34.6282846 146.11425699 61.36815714 132.72537325 93 131 C93.91007813 130.94585938 94.82015625 130.89171875 95.7578125 130.8359375 C114.5234866 130.2609447 133.44095516 134.54181657 147.625 147.375 C148.40875 148.24125 149.1925 149.1075 150 150 C150.79664063 150.79083984 150.79664063 150.79083984 151.609375 151.59765625 C174.67447035 175.63230207 171.4434334 214.28818919 171.30418181 244.97211599 C171.28519579 249.87406735 171.28364756 254.77602658 171.28010559 259.67800903 C171.27084861 268.9244375 171.24632251 278.17075724 171.21605712 287.41713822 C171.18231328 297.95914947 171.1659773 308.50116641 171.15097082 319.04321837 C171.11976591 340.69553917 171.06713146 362.34776269 171 384 C162.62363079 388.24599825 162.62363079 388.24599825 158.62280273 389.87524414 C157.48638588 390.34076439 157.48638588 390.34076439 156.32701111 390.81568909 C155.53718338 391.13561325 154.74735565 391.45553741 153.93359375 391.78515625 C153.09586929 392.12751816 152.25814484 392.46988007 151.39503479 392.82261658 C148.74371106 393.90551725 146.09068473 394.98416802 143.4375 396.0625 C140.78111294 397.14528614 138.12508869 398.228956 135.46925354 399.31309509 C133.82458243 399.98412867 132.17953426 400.65423912 130.53404236 401.32325745 C129.77958328 401.63045212 129.02512421 401.93764679 128.24780273 402.25415039 C127.16739212 402.69176193 127.16739212 402.69176193 126.06515503 403.13821411 C124.72131535 403.69899626 123.38692335 404.2831734 122.06497192 404.89376831 C118.48500051 406.5435706 115.91182489 407.13538343 112 407 C111.99761165 406.02154491 111.99522329 405.04308983 111.99276257 404.03498459 C111.93389624 380.19680993 111.85796937 356.35873577 111.76428509 332.52067184 C111.7193721 320.99263169 111.67994705 309.46462212 111.65356445 297.93652344 C111.63054797 287.88542065 111.59710916 277.83441501 111.55129844 267.78338933 C111.52741549 262.46437098 111.50865443 257.14544856 111.50238609 251.82637787 C111.49631294 246.81292959 111.47623278 241.79972658 111.44572449 236.78636932 C111.43697991 234.95311185 111.4332142 233.11982227 111.43499184 231.2865448 C111.44494943 216.26965871 110.57820804 202.53134227 100.03125 190.8125 C86.53569609 177.90370931 69.13311728 174.58411749 51.140625 174.86328125 C36.15980916 175.28239539 21.70059436 182.55997206 11 193 C10.3565564 193.52179305 9.71311279 194.0435861 9.0501709 194.58119106 C4.75712767 198.5347022 2.57762989 201.82312432 2.08489132 207.74808228 C1.93075923 211.68385361 1.95200077 215.60742253 2 219.54516602 C1.99238551 221.31988795 1.98125961 223.09459775 1.96690369 224.86927795 C1.93797877 229.66656876 1.95794536 234.46253853 1.9869194 239.25978208 C2.00885448 244.2806805 1.985511 249.30136729 1.96704102 254.32225037 C1.93894326 263.8206865 1.95136372 273.31861693 1.97846508 282.81703848 C2.00734804 293.63452513 1.99087343 304.45179542 1.97065353 315.26928437 C1.93008873 337.51298382 1.94627384 359.75634152 2 382 C-4.188791 384.61475085 -10.37777803 387.22903728 -16.56689453 389.84301758 C-18.66752447 390.73028319 -20.76811132 391.61765084 -22.86865234 392.50512695 C-28.74760639 394.98893612 -34.62773997 397.46991618 -40.5090332 399.94818115 C-42.69463269 400.87105766 -44.8780936 401.79871959 -47.06054688 402.72900391 C-48.13884766 403.18581543 -49.21714844 403.64262695 -50.328125 404.11328125 C-51.20887695 404.48880127 -52.08962891 404.86432129 -52.99707031 405.2512207 C-55 406 -55 406 -57 406 C-57 279.28 -57 152.56 -57 22 C-3.83333333 0 -3.83333333 0 0 0 Z " fill="#FEFEFE" transform="translate(848,528)"/>
<path d="M0 0 C13.98493515 12.99698839 21.61813957 25.50016432 22.9375 44.6875 C23.05780754 49.37372265 23.03382512 54.05600826 23.00341797 58.7434082 C22.99821338 60.13263784 22.99350757 61.52186941 22.98925781 62.91110229 C22.97937976 65.88424275 22.96655439 68.85735029 22.95153427 71.83046913 C22.92829034 76.54372033 22.91511382 81.2569675 22.90383911 85.97026062 C22.87055536 99.36686686 22.8289001 112.76340938 22.76611328 126.15991211 C22.73145383 133.57304625 22.70773487 140.98613371 22.69590485 148.39934033 C22.68786558 153.07239516 22.6667686 157.74514076 22.63569999 162.41809618 C22.61954731 165.34028833 22.61628147 168.26239506 22.61647034 171.18462753 C22.6129446 173.1585146 22.59448169 175.13235792 22.5753479 177.1061554 C22.59942693 187.95221883 23.95653835 198.31528582 29.5625 207.75 C33.30862459 214.1437021 33.30862459 214.1437021 33.9375 217.6875 C21.08580785 224.95227598 8.07396953 231.90159135 -4.97851562 238.79663086 C-5.65686966 239.15543839 -6.33522369 239.51424591 -7.03413391 239.88392639 C-8.30569216 240.55633555 -9.57777506 241.22775403 -10.85050964 241.89793396 C-14.42189506 243.78581818 -14.42189506 243.78581818 -17.91641235 245.81060791 C-21.35049857 247.88919234 -22.93817996 248.6875 -27.0625 248.6875 C-27.86728128 246.7554106 -28.65550609 244.81642419 -29.4375 242.875 C-29.87835937 241.79605469 -30.31921875 240.71710938 -30.7734375 239.60546875 C-33.93711777 230.7759673 -34.49427038 221.27904899 -35.1875 212 C-35.27386719 210.90494141 -35.36023437 209.80988281 -35.44921875 208.68164062 C-35.65864499 206.01727345 -35.86299251 203.35262503 -36.0625 200.6875 C-36.50529297 201.13552979 -36.94808594 201.58355957 -37.40429688 202.04516602 C-39.45426683 204.11620096 -41.50835433 206.18310697 -43.5625 208.25 C-44.25859375 208.95447266 -44.9546875 209.65894531 -45.671875 210.38476562 C-50.30027759 215.034596 -55.07977039 219.42177159 -60.0625 223.6875 C-61.06957878 224.57357319 -62.07614003 225.46023515 -63.08203125 226.34765625 C-83.90699596 244.26003848 -107.36541433 247.35716056 -134.0625 245.6875 C-155.09394278 243.28857419 -174.23441837 228.87552055 -189.0625 214.6875 C-189.69671875 214.10484375 -190.3309375 213.5221875 -190.984375 212.921875 C-204.76432277 199.87360587 -210.89944897 182.94142501 -211.4375 164.25 C-210.78994779 142.395113 -203.20226967 121.42735128 -189.0625 104.6875 C-188.41796875 103.89730469 -187.7734375 103.10710937 -187.109375 102.29296875 C-168.25780246 80.12491586 -138.76363648 66.91719221 -111.0625 59.6875 C-110.2271875 59.46320313 -109.391875 59.23890625 -108.53125 59.0078125 C-83.82778787 53.44190899 -58.58117211 60.61811124 -37.0625 72.6875 C-36.09966241 37.29675442 -36.09966241 37.29675442 -52.61328125 7.046875 C-61.17434938 -1.04425383 -72.66952473 -4.09340114 -84.1875 -4.625 C-96.9364285 -4.25746332 -110.91717404 -2.09056157 -120 7.5 C-126.08576797 15.1036301 -127.21513372 23.50832592 -127.125 33.0625 C-127.11597656 34.30773437 -127.10695313 35.55296875 -127.09765625 36.8359375 C-127.08605469 37.77695312 -127.07445313 38.71796875 -127.0625 39.6875 C-141.99598213 46.70558002 -156.97819156 53.61478952 -172.03674316 60.3605957 C-173.63182971 61.07610155 -175.22583503 61.79402287 -176.81872559 62.5144043 C-179.0714005 63.53222811 -181.32803359 64.5407143 -183.5859375 65.546875 C-184.25364166 65.85046936 -184.92134583 66.15406372 -185.60928345 66.46685791 C-189.41746662 68.14945443 -192.92780838 69.19168774 -197.0625 69.6875 C-201.74036788 54.30667041 -196.93319558 34.8103802 -190.0625 20.6875 C-187.9802083 17.1125093 -185.66683539 13.89652015 -183.0625 10.6875 C-182.61519531 10.0790625 -182.16789062 9.470625 -181.70703125 8.84375 C-164.99633385 -12.71844019 -130.002564 -23.33235748 -104.1875 -27.625 C-66.94108774 -31.73687617 -28.84443058 -25.17814001 0 0 Z M-166.4375 110.125 C-172.09813314 116.68690713 -171.81602229 125.2997235 -171.30517578 133.50439453 C-169.11432149 153.21326684 -156.46166304 169.93131883 -141.8359375 182.50390625 C-123.53571422 196.91211021 -105.6591641 204.62652637 -82.0625 202.6875 C-70.94384179 201.00633637 -60.12904698 196.1955764 -50.63626099 190.25991821 C-48.66748984 189.05711359 -46.64789486 187.93713956 -44.60975647 186.85603333 C-37.76347099 183.01132122 -37.76347099 183.01132122 -33.27702522 176.82036018 C-32.09957284 171.55561958 -32.45366029 166.21815562 -32.6953125 160.8671875 C-32.7214689 159.15520373 -32.74137635 157.44311418 -32.75534058 155.73098755 C-32.80846316 151.25317145 -32.94563042 146.7818512 -33.10119629 142.30657959 C-33.24517405 137.72871804 -33.30851087 133.14979192 -33.37890625 128.5703125 C-33.52845357 119.60654106 -33.76693654 110.64756324 -34.0625 101.6875 C-35.2383667 102.86445435 -35.2383667 102.86445435 -36.43798828 104.06518555 C-37.9713168 105.59723035 -39.50841787 107.12554873 -41.0546875 108.64453125 C-44.41420669 111.95526074 -47.66145648 115.30870791 -50.75 118.875 C-51.3171875 119.52726562 -51.884375 120.17953125 -52.46875 120.8515625 C-53.47345994 122.00894895 -54.47405437 123.16993318 -55.46875 124.3359375 C-56.75 125.75 -56.75 125.75 -59.0625 127.6875 C-62.76809341 127.38389046 -64.86890175 125.41449159 -67.625 123.0625 C-80.9529115 112.13478339 -95.54430959 105.19555402 -112.0625 100.6875 C-112.97386719 100.43871094 -113.88523437 100.18992187 -114.82421875 99.93359375 C-131.90122837 96.09997935 -153.90935293 96.48257062 -166.4375 110.125 Z " fill="#FEFEFE" transform="translate(2209.0625,686.3125)"/>
<path d="M0 0 C0.85323158 0.00037972 1.70646316 0.00075944 2.58555025 0.00115067 C3.56637545 -0.00084038 4.54720066 -0.00283143 5.55774784 -0.00488281 C7.19341329 -0.00051355 7.19341329 -0.00051355 8.86212248 0.00394398 C10.01045511 0.00308955 11.15878775 0.00223513 12.34191835 0.00135481 C15.54351613 -0.00001332 18.74507397 0.00313398 21.94666702 0.00813287 C25.39385276 0.0124342 28.84103649 0.01099118 32.28822416 0.0102306 C38.26542253 0.00970516 44.24261002 0.01285402 50.21980566 0.01846844 C58.86192454 0.02658077 67.50403814 0.02919838 76.14616042 0.03045643 C90.16598096 0.03264737 104.18579569 0.0393086 118.20561308 0.04875904 C131.82800861 0.05793207 145.45040258 0.06501344 159.07280058 0.06926686 C159.91188361 0.06952958 160.75096664 0.0697923 161.61547644 0.07006299 C165.82472982 0.07136798 170.0339832 0.0726317 174.2432366 0.07387489 C209.18683563 0.08424881 244.13042792 0.10186827 279.07402128 0.1241985 C278.42642418 3.66589805 277.70666203 6.10847577 275.69511503 9.1085735 C275.19358915 9.86710621 274.69206327 10.62563893 274.17533964 11.40715748 C273.62627958 12.22128102 273.07721952 13.03540455 272.51152128 13.8741985 C271.33323295 15.65074362 270.15621151 17.42812948 268.98027128 19.20622975 C268.35120878 20.15449635 267.72214628 21.10276295 267.07402128 22.0797649 C264.95200306 25.30993668 262.86587541 28.56176141 260.79277128 31.82341725 C260.25741506 32.66505924 260.25741506 32.66505924 259.71124357 33.52370411 C257.95677377 36.28355263 256.20543666 39.04535366 254.45658964 41.80876881 C253.81342802 42.81907154 253.1702664 43.82937428 252.50761503 44.87029225 C251.94099149 45.76417652 251.37436796 46.6580608 250.79057401 47.57903248 C249.02623061 50.19505865 247.04517923 52.66025106 245.07402128 55.1241985 C212.73402128 55.1241985 180.39402128 55.1241985 147.07402128 55.1241985 C147.07402128 162.0441985 147.07402128 268.9641985 147.07402128 379.1241985 C138.07154777 382.50012606 138.07154777 382.50012606 133.97490019 383.74993092 C132.60405775 384.17002682 132.60405775 384.17002682 131.20552152 384.59860951 C130.24689207 384.88935856 129.28826261 385.18010761 128.30058378 385.47966725 C126.79315107 385.93941693 126.79315107 385.93941693 125.25526518 386.40845448 C123.14624838 387.05090117 121.03683595 387.6920504 118.92704862 388.33196217 C115.68704228 389.31533423 112.44883394 390.30447149 109.21074003 391.29412037 C107.15745968 391.91881477 105.10407783 392.54317568 103.05058378 393.16716725 C102.07980894 393.46398899 101.1090341 393.76081074 100.10884184 394.06662709 C99.21385984 394.33723454 98.31887785 394.60784199 97.39677519 394.88664967 C96.60816099 395.12630955 95.81954679 395.36596943 95.0070352 395.61289173 C93.07402128 396.1241985 93.07402128 396.1241985 91.07402128 396.1241985 C91.07402128 288.8741985 91.07402128 181.6241985 91.07402128 71.1241985 C100.96770778 65.91699508 110.89581464 60.75065606 121.07402128 56.1241985 C70.58402128 55.7941985 20.09402128 55.4641985 -31.92597872 55.1241985 C-31.92597872 49.21399298 -31.05726571 46.82922639 -28.12129122 42.100761 C-27.52849367 41.11159939 -27.52849367 41.11159939 -26.92372042 40.10245472 C-25.64541895 37.97678083 -24.34874096 35.86303639 -23.05097872 33.7491985 C-22.17381371 32.2998676 -21.29767454 30.84991534 -20.42256075 29.39934498 C-17.94159264 25.29656623 -15.43700011 21.20863145 -12.92597872 17.1241985 C-12.31045138 16.11985768 -11.69492403 15.11551686 -11.06074435 14.08074147 C-2.51235731 0.16201166 -2.51235731 0.16201166 0 0 Z " fill="#FEFEFE" transform="translate(61.92597872018814,536.8758015036583)"/>
<path d="M0 0 C0.23907017 34.00681265 -0.44712533 67.99820754 -1 102 C40.91 102 82.82 102 126 102 C125 105 125 105 122.06689453 106.74243164 C120.7605443 107.39185111 119.44871711 108.03032165 118.1328125 108.66015625 C117.4311496 109.00608322 116.72948669 109.35201019 116.00656128 109.7084198 C113.71693668 110.8353028 111.42098519 111.9486427 109.125 113.0625 C106.75998278 114.22364827 104.39683602 115.38853852 102.03387451 116.55386353 C100.47779737 117.32118033 98.9211987 118.08744044 97.36407471 118.85263062 C91.85958007 121.56082888 86.40731502 124.35207511 81 127.25 C72.44180588 131.82305071 63.76447797 136.14798536 55.06640625 140.44824219 C54.02097656 140.96676758 52.97554687 141.48529297 51.8984375 142.01953125 C50.87580811 142.51831787 49.85317871 143.01710449 48.79956055 143.53100586 C46.05023635 144.8951674 46.05023635 144.8951674 43.89770508 146.48657227 C36.18522958 151.86504667 26.9262274 150.5383046 17.9375 150.3125 C16.1959956 150.28738293 14.45445626 150.26457578 12.71289062 150.24414062 C8.47438842 150.18942087 4.23758416 150.1033402 0 150 C0.00507568 150.89623581 0.01015137 151.79247162 0.01538086 152.71586609 C0.04307357 161.46383224 -0.0955419 170.19611615 -0.37039185 178.94016457 C-0.44001076 181.16216622 -0.50638919 183.3842462 -0.57202148 185.60636902 C-0.75882078 191.91373877 -0.95073222 198.22094796 -1.14550781 204.52807617 C-1.61924493 219.92187159 -2.08824349 235.31255838 -2.1328125 250.71484375 C-2.13845215 251.74237259 -2.1440918 252.76990143 -2.14990234 253.8285675 C-2.11907584 272.14750792 2.65276067 289.26810849 15.61328125 302.66796875 C25.8274591 312.15082122 38.6401975 316.72342418 52.42578125 316.3359375 C72.38048079 314.46041383 88.05739917 300.33575571 100.625 285.75 C101.21539063 285.02296875 101.80578125 284.2959375 102.4140625 283.546875 C104 282 104 282 107 282 C109.95930797 285.72653596 110.42408847 288.32965867 110 293 C109.00509337 296.17912692 107.71284201 299.20165721 106.375 302.25 C106.00890625 303.0968335 105.6428125 303.94366699 105.265625 304.81616211 C94.75946702 328.6960898 76.23823252 347.5144082 51.93261719 357.26855469 C31.6362884 364.95018696 10.39317077 363.79482763 -9.4296875 355.1328125 C-16.94839358 351.63718299 -23.83493483 347.59560132 -30 342 C-31.02480469 341.09507812 -31.02480469 341.09507812 -32.0703125 340.171875 C-52.20475619 321.33889725 -58.5525333 290.84330389 -59.88903809 264.37106323 C-60.36365437 249.95204812 -59.83688798 235.52813028 -59.34375 221.1171875 C-59.27623034 219.08025962 -59.20897458 217.04332299 -59.14196777 215.00637817 C-58.96703247 209.70960661 -58.78857298 204.41295977 -58.60931396 199.11633301 C-58.3938239 192.72670975 -58.18282678 186.33693666 -57.97105408 179.94718933 C-57.65076309 170.29800878 -57.32485722 160.64903276 -57 151 C-77.46 150.67 -97.92 150.34 -119 150 C-117.05335174 146.10670349 -115.70067419 144.59283249 -112.5 141.8125 C-111.6028125 141.02488281 -110.705625 140.23726562 -109.78125 139.42578125 C-108.8634375 138.62527344 -107.945625 137.82476563 -107 137 C-105.33051794 135.50313414 -103.66378377 134.00319704 -102 132.5 C-100.76636719 131.39011719 -100.76636719 131.39011719 -99.5078125 130.2578125 C-97.81407106 128.73291756 -96.12138831 127.20684598 -94.4296875 125.6796875 C-85.20800534 117.36043295 -85.20800534 117.36043295 -80.97265625 113.7734375 C-78.92706284 111.99508704 -78.92706284 111.99508704 -76.99609375 109.7890625 C-74.875 107.5625 -74.875 107.5625 -70 104 C-65.38 104 -60.76 104 -56 104 C-56 76.61 -56 49.22 -56 21 C-46.43 17.04 -36.86 13.08 -27 9 C-17.05995813 4.82611566 -17.05995813 4.82611566 -7.12695312 0.63574219 C-4.66947013 -0.09879474 -2.55120138 -0.1104851 0 0 Z " fill="#FEFEFE" transform="translate(2372,572)"/>
<path d="M0 0 C1.09183594 0.38542969 2.18367187 0.77085937 3.30859375 1.16796875 C9.78710744 3.66717066 15.4700284 6.81094257 21 11 C21.66515625 11.48855469 22.3303125 11.97710938 23.015625 12.48046875 C37.14840734 23.74774601 45.24754218 42.48514991 48 60 C49.83482408 79.37904079 42.7528913 96.16484061 30.64453125 110.91796875 C13.13907853 131.56064546 -9.47126979 144.0339237 -32.99072266 156.61254883 C-44.09906302 162.55913758 -55.06048281 168.74965538 -66 175 C-68.0338383 176.16018406 -70.06769262 177.32034004 -72.1015625 178.48046875 C-77.07005356 181.31622185 -82.03607151 184.15626843 -87 187 C-75.84396062 201.99080355 -61.36558943 208.96815091 -43 212 C-41.93652344 212.18433594 -40.87304688 212.36867188 -39.77734375 212.55859375 C-9.03887842 216.15057574 17.66261173 206.55350279 42 188 C49.75807066 181.77042339 57.03272642 175.09808338 64 168 C66.4375 168.75 66.4375 168.75 69 170 C69.86328125 171.6875 69.86328125 171.6875 70 174 C63.52414795 188.7905263 52.48398902 202.87967149 42 215 C41.34128906 215.76957031 40.68257812 216.53914062 40.00390625 217.33203125 C18.02036008 242.39078048 -8.40737332 265.88879822 -43.2734375 268.21875 C-72.83959346 268.98836794 -104.11116325 260.13467179 -125.95166016 239.51708984 C-137.44679028 228.23663387 -145.31842065 215.56638462 -152 201 C-152.48339844 199.98292969 -152.96679688 198.96585938 -153.46484375 197.91796875 C-168.34091878 164.86504825 -163.32326075 124.08038152 -151.3125 90.9375 C-144.37872672 72.84780126 -134.28511697 56.38274314 -121.07421875 42.2265625 C-119.18675832 40.20047504 -117.40379289 38.12103095 -115.625 36 C-107.27802613 26.4878879 -97.44608876 19.01916129 -87 12 C-86.14664063 11.4225 -85.29328125 10.845 -84.4140625 10.25 C-60.45869685 -5.03049902 -26.83429088 -9.63523661 0 0 Z M-103 56 C-105.68001623 59.50893966 -107.90940704 63.11434293 -110 67 C-110.70769531 68.31097656 -110.70769531 68.31097656 -111.4296875 69.6484375 C-123.40766655 93.81702245 -118.16954262 121.96969139 -110.1875 146.5625 C-105.78162452 161.05166437 -105.78162452 161.05166437 -97 172 C-95.05788534 171.29493274 -95.05788534 171.29493274 -92.9140625 170.11328125 C-92.07584961 169.6757251 -91.23763672 169.23816895 -90.37402344 168.78735352 C-89.4668457 168.30065186 -88.55966797 167.8139502 -87.625 167.3125 C-86.68688477 166.81355225 -85.74876953 166.31460449 -84.78222656 165.80053711 C-63.78215424 154.51783494 -43.79348282 141.9352221 -26 126 C-25.31550781 125.39929688 -24.63101563 124.79859375 -23.92578125 124.1796875 C-13.91098961 114.86255551 -8.20445343 103.82038219 -7.60205078 90.18896484 C-7.29476519 74.15320946 -13.52797365 61.06110982 -24.3828125 49.45703125 C-34.62007951 39.84622386 -45.67624787 33.31958291 -59.97143555 33.53100586 C-76.40178001 34.27511627 -92.11410433 44.06976637 -103 56 Z " fill="#FEFEFE" transform="translate(429,665)"/>
<path d="M0 0 C1.06951904 0.24943359 1.06951904 0.24943359 2.16064453 0.50390625 C23.67529459 5.69163165 42.10929908 16.93891422 54 36 C66.05635579 57.20641125 66.05635579 57.20641125 65 66 C63.46607971 67.62388611 63.46607971 67.62388611 61.28735352 69.04272461 C60.47553116 69.58356186 59.6637088 70.12439911 58.82728577 70.68162537 C57.49158791 71.53338097 57.49158791 71.53338097 56.12890625 72.40234375 C55.21801743 73.00252823 54.3071286 73.60271271 53.36863708 74.22108459 C50.44367137 76.14303899 47.50364938 78.0404262 44.5625 79.9375 C42.6141875 81.21129082 40.66690848 82.48666389 38.72070312 83.76367188 C34.29829447 86.66194448 29.86623866 89.54466904 25.42312622 92.41110229 C23.76136283 93.50075748 22.11348986 94.61180689 20.47799683 95.74050903 C19.28027145 96.56613846 19.28027145 96.56613846 18.05834961 97.40844727 C17.34867538 97.90635269 16.63900116 98.40425812 15.90782166 98.91725159 C14 100 14 100 11 100 C10.75262085 99.1793103 10.75262085 99.1793103 10.50024414 98.34204102 C3.45012497 75.29014915 -5.34836721 54.63011913 -27 42 C-34.73400109 37.98577862 -42.3483047 35.8857977 -51 35 C-51.72316406 34.91621094 -52.44632813 34.83242188 -53.19140625 34.74609375 C-67.92660323 33.87931746 -83.18677103 40.90555048 -94.25 50.0625 C-109.31703804 64.49255757 -117.239617 87.40629363 -118 108 C-118.0515625 109.31226563 -118.103125 110.62453125 -118.15625 111.9765625 C-118.90724759 140.51447085 -107.9729304 166.24892302 -88.42285156 187.10375977 C-77.14120621 198.63683051 -64.45863197 206.42358612 -49 211 C-47.30230469 211.50853516 -47.30230469 211.50853516 -45.5703125 212.02734375 C-18.43331662 218.70390623 9.94973974 213.49211929 33.5859375 199.19921875 C43.19439672 193.14934651 51.6650217 185.66987816 60 178 C62.6546672 175.65280649 65.32491829 173.32388383 68 171 C70 172 72 173 74 174 C73.34957232 179.06114036 71.18022272 183.3248711 69 187.875 C68.59773193 188.71635498 68.19546387 189.55770996 67.78100586 190.42456055 C58.44869564 209.62531176 46.48988807 226.52878142 31.38671875 241.609375 C29.99170623 243.00667068 28.61541879 244.42409298 27.2890625 245.88671875 C13.12954475 261.20957716 -8.03664081 271.20756125 -28.76953125 272.41796875 C-43.41023456 272.91443949 -56.92020102 270.90784008 -71 267 C-71.72396973 266.80245117 -72.44793945 266.60490234 -73.19384766 266.40136719 C-102.17267502 258.26227379 -125.82532492 240.26897434 -140.6875 214.1875 C-161.12961065 176.975914 -163.7304267 135.5339487 -152.80224609 94.73876953 C-142.43411551 59.34324643 -117.26396719 27.18425635 -85.16748047 8.95947266 C-59.68066367 -4.81961911 -27.85381405 -6.67283072 0 0 Z " fill="#FEFEFE" transform="translate(681,662)"/>
</svg>
